<?xml version="1.0" encoding="UTF-8" standalone="no"?>
<svg width="28px" height="30px" viewBox="0 0 28 30" version="1.1" xmlns="http://www.w3.org/2000/svg" xmlns:xlink="http://www.w3.org/1999/xlink">
    <!-- Generator: Sketch 41.2 (35397) - http://www.bohemiancoding.com/sketch -->
    <title>LinkedIn</title>
    <desc>Created with Sketch.</desc>
    <defs></defs>
    <g id="Symbols" stroke="none" stroke-width="1" fill="none" fill-rule="evenodd">
        <g id="Footer-Mobile" transform="translate(-146.000000, -75.000000)" fill="#FAFAF0">
            <g id="Footer">
                <g id="LinkedIn" transform="translate(146.000000, 75.000000)">
                    <path d="M14,0.726517903 C6.65682927,0.726517903 0.682926829,7.08173326 0.682926829,14.893617 C0.682926829,22.7036845 6.65682927,29.0607161 14,29.0607161 C21.3431707,29.0607161 27.3170732,22.7036845 27.3170732,14.893617 C27.3170732,7.08173326 21.3431707,0.726517903 14,0.726517903 Z M14,29.787234 C6.28053659,29.787234 0,23.1069019 0,14.893617 C0,6.68105864 6.28053659,0 14,0 C21.7198049,0 28,6.68105864 28,14.893617 C28,23.1069019 21.7198049,29.787234 14,29.787234 L14,29.787234 Z" id="Fill-37"></path>
                    <path d="M20.1463415,20.309808 L17.4286341,20.309808 L17.4286341,16.0814738 C17.4286341,14.9771666 17.0045366,14.2234043 16.0699512,14.2234043 C15.3552683,14.2234043 14.9581463,14.7319668 14.7727317,15.2241827 C14.7023902,15.398547 14.714,15.6455631 14.714,15.8889465 L14.714,20.309808 L12.0222439,20.309808 C12.0222439,20.309808 12.0580976,12.8248573 12.0222439,12.1444733 L14.714,12.1444733 L14.714,13.4249611 C14.873122,12.8655423 15.7329268,12.0660093 17.1052683,12.0660093 C18.8081463,12.0660093 20.1463415,13.2400623 20.1463415,15.7690711 L20.1463415,20.309808 Z M9.30009756,11.1233524 L9.28268293,11.1233524 C8.41604878,11.1233524 7.85365854,10.4981837 7.85365854,9.70736897 C7.85365854,8.90238713 8.43209756,8.29065906 9.3175122,8.29065906 C10.2005366,8.29065906 10.7441463,8.90093409 10.7619024,9.70555267 C10.7619024,10.4967307 10.2005366,11.1233524 9.30009756,11.1233524 Z M8.16268293,20.309808 L10.5600976,20.309808 L10.5600976,12.1444733 L8.16268293,12.1444733 L8.16268293,20.309808 Z" id="Fill-38"></path>
                </g>
            </g>
        </g>
    </g>
</svg>