<?xml version="1.0" encoding="UTF-8" standalone="no"?>
<svg width="28px" height="30px" viewBox="0 0 28 30" version="1.1" xmlns="http://www.w3.org/2000/svg" xmlns:xlink="http://www.w3.org/1999/xlink">
    <!-- Generator: Sketch 41.2 (35397) - http://www.bohemiancoding.com/sketch -->
    <title>500px</title>
    <desc>Created with Sketch.</desc>
    <defs></defs>
    <g id="Symbols" stroke="none" stroke-width="1" fill="none" fill-rule="evenodd">
        <g id="Footer-Mobile" transform="translate(-199.000000, -112.000000)" fill="#FAFAF0">
            <g id="Footer">
                <g id="500px" transform="translate(199.000000, 112.000000)">
                    <path d="M14,0.726517903 C6.65682927,0.726517903 0.682926829,7.08173326 0.682926829,14.8932538 C0.682926829,22.705864 6.65682927,29.0592631 14,29.0592631 C21.3431707,29.0592631 27.3170732,22.705864 27.3170732,14.8932538 C27.3170732,7.08173326 21.3431707,0.726517903 14,0.726517903 Z M14,29.785781 C6.28053659,29.785781 0,23.1054489 0,14.8932538 C0,6.68105864 6.28053659,0 14,0 C21.7198049,0 28,6.68105864 28,14.8932538 C28,23.1054489 21.7198049,29.785781 14,29.785781 L14,29.785781 Z" id="Fill-33"></path>
                    <path d="M18.8222295,19.6411452 C18.7275143,19.5403844 18.6564779,19.4837064 18.5854416,19.4648138 C18.5203249,19.4396236 18.4552083,19.4585162 18.4078507,19.5088966 L18.3604931,19.5529795 C17.8928371,20.0504859 17.348225,20.440934 16.7444159,20.7054311 C16.116928,20.9888208 15.453922,21.1273669 14.7672372,21.1273669 C14.0805524,21.1273669 13.4116266,20.9825233 12.7900585,20.6991335 C12.1862494,20.4283389 11.6416373,20.0315932 11.1739813,19.5340868 C10.6885662,19.0113902 10.321545,18.4320156 10.0847571,17.8148558 C9.85388892,17.2039934 9.77693286,16.7442723 9.75325408,16.5994287 L9.74733438,16.5679409 C9.71773589,16.3916095 9.56382378,16.3790144 9.344795,16.4105022 C9.25007985,16.4293948 8.9777738,16.4734777 9.00145259,16.6812968 C9.07840865,17.1725057 9.20864198,17.6637146 9.38623288,18.1234357 C9.68221771,18.8539515 10.1025162,19.5277893 10.6412086,20.0945687 C11.179901,20.6676458 11.8073888,21.1084742 12.4940737,21.4296493 C13.2162767,21.7571219 13.9799175,21.9145606 14.7731569,21.9145606 C15.5604766,21.9145606 16.3300371,21.7508243 17.0463204,21.4296493 C17.7448446,21.1147718 18.3723325,20.6676458 18.8991855,20.0945687 L18.9465431,20.0441883 C19.0116597,19.9749153 19.0590173,19.8552619 18.8281491,19.6096574 L18.8222295,19.6411452 Z M14.7613175,9.73509948 C14.009516,9.73509948 13.2044373,9.89883578 12.6183873,10.1696304 C12.5591903,10.1948206 12.5177524,10.2514986 12.5118327,10.3270692 C12.505913,10.3963422 12.5236721,10.4908054 12.5710297,10.6104589 C12.6065479,10.7112197 12.701263,10.9694192 12.8906933,10.8938486 C13.4945024,10.6419466 14.1575084,10.5096981 14.7672372,10.5096981 C15.453922,10.5096981 16.1228477,10.6545417 16.7503356,10.9379315 C17.2475901,11.1583457 17.7211659,11.4858183 18.2302598,11.951837 C18.265778,11.9833247 18.3072158,12.0022174 18.3486537,12.0022174 C18.4492886,12.0022174 18.5440037,11.9014566 18.6268795,11.8006958 C18.7630325,11.6369595 18.8577476,11.504711 18.7215946,11.3661649 C18.2302598,10.8686584 17.6974871,10.5034005 17.034481,10.2011182 C16.3181977,9.87364558 15.5545569,9.71620684 14.7672372,9.71620684 L14.7613175,9.73509948 Z M13.7312903,16.5175605 C13.7312903,16.6057262 13.8082463,16.6875944 13.8556039,16.7379748 L13.8674433,16.7505699 C13.950319,16.832438 14.0213554,16.8765208 14.0923918,16.8765208 C14.1515887,16.8765208 14.1871069,16.8513306 14.1989463,16.832438 C14.2344645,16.8009503 14.6310842,16.3727169 14.672522,16.328634 L15.1164993,16.7946527 C15.1579372,16.8450331 15.1993751,16.8702233 15.2526523,16.8702233 C15.3236887,16.8702233 15.4006447,16.8261404 15.4835205,16.7442723 C15.6729508,16.5427507 15.5782356,16.4293948 15.5308781,16.3664193 L15.0809811,15.9004006 L15.5486372,15.3965967 C15.649272,15.2769432 15.5663963,15.1572898 15.4776008,15.056529 C15.3473675,14.9179829 15.2230538,14.8864951 15.1401781,14.9620657 L14.672522,15.4532746 L14.204866,14.9557682 C14.1811872,14.930578 14.145669,14.9242804 14.1160706,14.9242804 C14.0568736,14.9242804 13.9799175,14.9746608 13.8970418,15.0628265 C13.7490494,15.2202653 13.7194509,15.3273236 13.8023266,15.4154893 L14.2759024,15.9192933 L13.8082463,16.4230973 C13.7668085,16.4671801 13.7490494,16.511263 13.7490494,16.5490483 L13.7312903,16.5175605 Z M10.7773616,17.2984567 C10.7773616,17.3047542 10.848398,17.4999783 10.8898358,17.5944415 C11.0970252,18.1297332 11.4048495,18.608347 11.7896297,19.0239853 C12.17441,19.433326 12.624307,19.7545011 13.1334009,19.9812129 C13.6543342,20.2142222 14.2107857,20.3338756 14.7731569,20.3338756 C15.3473675,20.3338756 15.8978993,20.2142222 16.4129129,19.9812129 C16.9160871,19.7607986 17.3659841,19.433326 17.756684,19.0239853 C18.1414643,18.6146446 18.4433689,18.1360308 18.6564779,17.5944415 C18.8814264,17.0465547 18.987981,16.454585 18.987981,15.8500202 C18.987981,15.251753 18.8873461,14.6660809 18.6564779,14.1181941 C18.4492886,13.5891999 18.1414643,13.1105861 17.756684,12.6886503 C17.3719038,12.2793096 16.9220068,11.9644321 16.4247523,11.7314227 C15.9097387,11.4984134 15.3532872,11.37876 14.7849963,11.37876 C14.2167054,11.37876 13.6365751,11.4984134 13.1274812,11.7314227 C12.7190221,11.9203492 12.0264176,12.3863679 11.6179585,12.8334939 L11.6179585,9.11164206 L17.4311007,9.11164206 C17.6382901,9.10534451 17.6382901,8.79676458 17.6382901,8.68970623 C17.6382901,8.58894544 17.6382901,8.2677704 17.4311007,8.2677704 L11.0851858,8.2677704 C10.9135146,8.2677704 10.8069601,8.41261405 10.8069601,8.55745769 L10.8069601,13.7466386 C10.8069601,13.9103749 11.0023101,14.0300284 11.1858207,14.0741112 C11.5410025,14.1559794 11.6238782,14.0300284 11.7126737,13.9040774 C11.8488267,13.6773656 12.2632055,13.2365371 12.2750449,13.2302396 C12.9202918,12.5438067 13.7845675,12.1596561 14.7080402,12.1596561 C15.6255932,12.1596561 16.4898689,12.5438067 17.1410356,13.2302396 C17.7922022,13.92297 18.147384,14.8424123 18.147384,15.8122349 C18.147384,16.7883552 17.7862825,17.7077974 17.1410356,18.3942303 C16.4957886,19.0743657 15.6078341,19.4648138 14.6902811,19.4648138 C14.0627933,19.4648138 13.4708236,19.2884824 12.95581,18.9610098 L12.95581,15.7996398 C12.95581,15.377704 13.1215615,14.9242804 13.4116266,14.5779152 C13.7431297,14.1874671 14.1871069,13.9670529 14.6784417,13.9670529 C15.1520175,13.9670529 15.6019144,14.1622769 15.9334175,14.5086422 C16.2649205,14.8550074 16.4365917,15.3210261 16.4365917,15.8185325 C16.4365917,16.8702233 15.6611114,17.6889048 14.6606827,17.6889048 C14.4712524,17.6889048 14.1160706,17.6007391 14.1042312,17.5944415 C13.9029615,17.531466 13.814166,17.8274509 13.7904872,17.9219141 C13.678013,18.2997671 13.8496842,18.3690401 13.8792827,18.3816352 C14.1989463,18.482396 14.4061357,18.5012887 14.6843614,18.5012887 C16.0932493,18.5012887 17.229831,17.2858616 17.229831,15.7933423 C17.229831,14.3071206 16.0873296,13.1042886 14.6843614,13.1042886 C13.9976766,13.1042886 13.3524297,13.3750832 12.8670145,13.8914823 C12.3993585,14.3700961 12.1329722,15.0187437 12.1329722,15.6547962 L12.1329722,18.2619818 C11.8665858,17.9408067 11.6120388,17.4684905 11.4344479,16.9835792 C11.3634116,16.7946527 11.2094995,16.8261404 11.0023101,16.8954135 C10.9075949,16.9206037 10.6352889,17.0150669 10.6885662,17.2291836 L10.7773616,17.2984567 Z" id="Shape"></path>
                </g>
            </g>
        </g>
    </g>
</svg>