<?xml version="1.0" encoding="UTF-8" standalone="no"?>
<svg width="28px" height="30px" viewBox="0 0 28 30" version="1.1" xmlns="http://www.w3.org/2000/svg" xmlns:xlink="http://www.w3.org/1999/xlink">
    <!-- Generator: Sketch 41.2 (35397) - http://www.bohemiancoding.com/sketch -->
    <title>Behance</title>
    <desc>Created with Sketch.</desc>
    <defs></defs>
    <g id="Symbols" stroke="none" stroke-width="1" fill="none" fill-rule="evenodd">
        <g id="Footer-Mobile" transform="translate(-199.000000, -75.000000)" fill="#FAFAF0">
            <g id="Footer">
                <g id="Behance" transform="translate(199.000000, 75.000000)">
                    <path d="M14,0.726517903 C6.65682927,0.726517903 0.682926829,7.08173326 0.682926829,14.8932538 C0.682926829,22.7051375 6.65682927,29.0607161 14,29.0607161 C21.3431707,29.0607161 27.3170732,22.7051375 27.3170732,14.8932538 C27.3170732,7.08173326 21.3431707,0.726517903 14,0.726517903 Z M14,29.787234 C6.28053659,29.787234 0,23.1054489 0,14.8932538 C0,6.68105864 6.28053659,0 14,0 C21.7198049,0 28,6.68105864 28,14.8932538 C28,23.1054489 21.7198049,29.787234 14,29.787234 L14,29.787234 Z" id="Fill-10"></path>
                    <path d="M15.7086829,12.1310327 L18.9638537,12.1310327 L18.9638537,11.1248054 L15.7086829,11.1248054 L15.7086829,12.1310327 Z M16.4803902,14.3272963 C16.272439,14.5554229 16.1423415,14.8638298 16.0883902,15.2532434 L18.6203415,15.2532434 C18.5937073,14.8380384 18.4625854,14.5238194 18.2293659,14.3080436 C17.9937561,14.092631 17.7035122,13.9854696 17.3569268,13.9854696 C16.9809756,13.9854696 16.6876585,14.0991697 16.4803902,14.3272963 Z M18.6777073,12.9766995 C19.0700488,13.1626881 19.3934146,13.4580176 19.6474634,13.8615983 C19.8796585,14.2165023 20.0285366,14.6288012 20.0964878,15.0974053 C20.1357561,15.3720291 20.1518049,15.7683446 20.1449756,16.2845355 L16.0525366,16.2845355 C16.076439,16.8846393 16.2707317,17.3056565 16.6405366,17.5461339 C16.8652195,17.6965231 17.1346341,17.7717177 17.4508293,17.7717177 C17.7840976,17.7717177 18.0562439,17.6801764 18.265561,17.4974572 C18.3802927,17.3986508 18.4817073,17.2613389 18.5680976,17.0858848 L20.0678049,17.0858848 C20.0285366,17.4404255 19.8461951,17.8004152 19.5238537,18.16767 C19.020878,18.748521 18.3160976,19.0391282 17.4105366,19.0391282 C16.6623902,19.0391282 16.0023415,18.7946549 15.4320976,18.3035288 C14.859122,17.8131292 14.5743415,17.0143228 14.5743415,15.9096523 C14.5743415,14.872548 14.8321463,14.0788272 15.3474146,13.5248573 C15.8640488,12.9730669 16.5333171,12.6959004 17.3562439,12.6959004 C17.8452195,12.6959004 18.2857073,12.7896212 18.6777073,12.9766995 Z M9.36839024,15.2743124 L9.36839024,17.4317073 L11.2126341,17.4317073 C11.5421463,17.4317073 11.7996098,17.3837571 11.9819512,17.2893098 C12.3162439,17.1124027 12.4818537,16.7763882 12.4818537,16.2798132 C12.4818537,15.8584328 12.3217073,15.5696419 11.998,15.4119875 C11.8177073,15.3244421 11.5643415,15.2783083 11.2389268,15.2743124 L9.36839024,15.2743124 Z M9.36839024,12.152465 L9.36839024,13.9371562 L11.2157073,13.9371562 C11.5445366,13.9371562 11.8125854,13.86959 12.0195122,13.7359107 C12.2243902,13.6018682 12.3281951,13.3646601 12.3281951,13.0257395 C12.3281951,12.6486767 12.1916098,12.4002076 11.9201463,12.2785158 C11.6852195,12.194603 11.3857561,12.152465 11.022439,12.152465 L9.36839024,12.152465 Z M13.4936098,11.6093928 C13.7254634,11.9537623 13.841561,12.3649715 13.841561,12.8444733 C13.841561,13.3374157 13.7254634,13.7344577 13.4912195,14.0345096 C13.3594146,14.2026985 13.1664878,14.3567203 12.9107317,14.4947587 C13.2986341,14.6462377 13.5905854,14.883809 13.7889756,15.2092891 C13.9856585,15.5347691 14.0846829,15.9296316 14.0846829,16.394603 C14.0846829,16.8733783 13.9730244,17.3042034 13.7459512,17.683809 C13.6025366,17.9355475 13.4232683,18.1484172 13.2081463,18.3198755 C12.9657073,18.5178516 12.6809268,18.6529839 12.3507317,18.7263622 C12.0201951,18.7997405 11.6630244,18.8357032 11.2771707,18.8357032 L7.854,18.8357032 L7.854,10.7477426 L11.5247317,10.7477426 C12.4514634,10.7619097 13.1074146,11.0492475 13.4936098,11.6093928 L13.4936098,11.6093928 Z" id="Fill-11"></path>
                </g>
            </g>
        </g>
    </g>
</svg>