<?xml version="1.0" encoding="UTF-8" standalone="no"?>
<svg width="28px" height="30px" viewBox="0 0 28 30" version="1.1" xmlns="http://www.w3.org/2000/svg" xmlns:xlink="http://www.w3.org/1999/xlink">
    <!-- Generator: Sketch 41.2 (35397) - http://www.bohemiancoding.com/sketch -->
    <title>Vimeo</title>
    <desc>Created with Sketch.</desc>
    <defs></defs>
    <g id="Symbols" stroke="none" stroke-width="1" fill="none" fill-rule="evenodd">
        <g id="Footer-Mobile" transform="translate(-93.000000, -112.000000)" fill="#FAFAF0">
            <g id="Footer">
                <g id="Vimeo" transform="translate(93.000000, 112.000000)">
                    <path d="M14,0.726517903 C6.65682927,0.726517903 0.682926829,7.08354956 0.682926829,14.893617 C0.682926829,22.7073171 6.65682927,29.0607161 14,29.0607161 C21.3431707,29.0607161 27.3170732,22.7073171 27.3170732,14.893617 C27.3170732,7.08354956 21.3431707,0.726517903 14,0.726517903 Z M14,29.787234 C6.28053659,29.787234 0,23.1069019 0,14.893617 C0,6.68396471 6.28053659,0 14,0 C21.7198049,0 28,6.68396471 28,14.893617 C28,23.1069019 21.7198049,29.787234 14,29.787234 L14,29.787234 Z" id="Fill-48"></path>
                    <path d="M20.1395122,12.1982356 C20.085561,13.4696419 19.2486341,15.2096523 17.6341951,17.4110016 C15.9630732,19.7176959 14.5470244,20.8692268 13.3901463,20.8692268 C12.6740976,20.8692268 12.068,20.168137 11.5721951,18.7623249 C11.2406341,17.4727556 10.9107805,16.1831863 10.5802439,14.893617 C10.2114634,13.4878049 9.81707317,12.7867151 9.39468293,12.7867151 C9.30317073,12.7867151 8.98287805,12.9901401 8.43107317,13.4006227 L7.85297561,12.6087182 C8.45804878,12.0456668 9.05526829,11.4789829 9.64395122,10.9122989 C10.4508293,10.1676181 11.0569268,9.77893098 11.4625854,9.7389725 C12.4159512,9.64089258 13.0049756,10.3347172 13.2262439,11.8168137 C13.4625366,13.4224183 13.6291707,14.4177478 13.7210244,14.8064349 C13.9965854,16.1359626 14.299122,16.7970939 14.6303415,16.7970939 C14.886439,16.7970939 15.2726341,16.3684484 15.7872195,15.5111572 C16.3018049,14.6502335 16.5766829,13.9963674 16.613561,13.5459263 C16.6869756,12.804878 16.4120976,12.4343539 15.7872195,12.4343539 C15.493561,12.4343539 15.1903415,12.4997405 14.8779024,12.6414115 C15.4850244,10.54904 16.6422439,9.53554748 18.3499024,9.59366892 C19.6163902,9.62999481 20.2136098,10.5018163 20.1395122,12.1982356" id="Fill-49"></path>
                </g>
            </g>
        </g>
    </g>
</svg>