<?xml version="1.0" encoding="UTF-8" standalone="no"?>
<svg width="28px" height="30px" viewBox="0 0 28 30" version="1.1" xmlns="http://www.w3.org/2000/svg" xmlns:xlink="http://www.w3.org/1999/xlink">
    <!-- Generator: Sketch 41.2 (35397) - http://www.bohemiancoding.com/sketch -->
    <title>Github</title>
    <desc>Created with Sketch.</desc>
    <defs></defs>
    <g id="Symbols" stroke="none" stroke-width="1" fill="none" fill-rule="evenodd">
        <g id="Footer-Mobile" transform="translate(-93.000000, -75.000000)">
            <g id="Footer">
                <g id="Github" transform="translate(93.000000, 75.000000)">
                    <path d="M14,0.726517903 C6.65682927,0.726517903 0.682926829,7.08173326 0.682926829,14.893617 C0.682926829,22.7036845 6.65682927,29.0607161 14,29.0607161 C21.3431707,29.0607161 27.3170732,22.7036845 27.3170732,14.893617 C27.3170732,7.08173326 21.3431707,0.726517903 14,0.726517903 Z M14,29.787234 C6.28053659,29.787234 0,23.1069019 0,14.893617 C0,6.68105864 6.28053659,0 14,0 C21.7198049,0 28,6.68105864 28,14.893617 C28,23.1069019 21.7198049,29.787234 14,29.787234 L14,29.787234 Z" id="Fill-37" fill="#FAFAF0"></path>
                    <g id="Group-2" transform="translate(5.000000, 6.000000)">
                        <path d="M8.90022173,0.797202797 C4.89485588,0.797202797 1.63636364,4.2636839 1.63636364,8.52471141 C1.63636364,12.7847482 4.89485588,16.25222 8.90022173,16.25222 C12.9055876,16.25222 16.1640798,12.7847482 16.1640798,8.52471141 C16.1640798,4.2636839 12.9055876,0.797202797 8.90022173,0.797202797 Z" id="Fill-37" stroke="#FAFAF0" fill="#FAFAF0"></path>
                        <path d="M8.88436364,0 C3.97854545,0 0,3.978 0,8.88545455 C0,12.8110909 2.54563636,16.1410909 6.07636364,17.316 C6.52090909,17.3978182 6.68290909,17.1234545 6.68290909,16.8878182 C6.68290909,16.6767273 6.67527273,16.1181818 6.67090909,15.3769091 C4.19945455,15.9136364 3.678,14.1856364 3.678,14.1856364 C3.27381818,13.1590909 2.69127273,12.8858182 2.69127273,12.8858182 C1.88454545,12.3349091 2.75236364,12.3458182 2.75236364,12.3458182 C3.64418182,12.4085455 4.11327273,13.2616364 4.11327273,13.2616364 C4.90581818,14.6192727 6.19309091,14.2270909 6.69927273,13.9996364 C6.78,13.4258182 7.00963636,13.0341818 7.26327273,12.8121818 C5.29036364,12.588 3.216,11.8254545 3.216,8.42072727 C3.216,7.45090909 3.56236364,6.65727273 4.13072727,6.03654545 C4.03909091,5.81181818 3.73418182,4.908 4.218,3.68509091 C4.218,3.68509091 4.96363636,3.44618182 6.66109091,4.596 C7.36963636,4.39854545 8.13,4.30036364 8.88545455,4.29654545 C9.64036364,4.30036364 10.4001818,4.39854545 11.1098182,4.596 C12.8061818,3.44618182 13.5507273,3.68509091 13.5507273,3.68509091 C14.0356364,4.908 13.7307273,5.81181818 13.6396364,6.03654545 C14.2090909,6.65727273 14.5527273,7.45090909 14.5527273,8.42072727 C14.5527273,11.8341818 12.4750909,12.5852727 10.4961818,12.8050909 C10.8147273,13.0794545 11.0989091,13.6216364 11.0989091,14.4501818 C11.0989091,15.6381818 11.088,16.5965455 11.088,16.8878182 C11.088,17.1256364 11.2483636,17.4021818 11.6989091,17.3154545 C15.2269091,16.1378182 17.7703636,12.81 17.7703636,8.88545455 C17.7703636,3.978 13.7918182,0 8.88436364,0" id="Fill-50" fill="#CC446A"></path>
                    </g>
                </g>
            </g>
        </g>
    </g>
</svg>