<?xml version="1.0" encoding="UTF-8" standalone="no"?>
<svg width="28px" height="30px" viewBox="0 0 28 30" version="1.1" xmlns="http://www.w3.org/2000/svg" xmlns:xlink="http://www.w3.org/1999/xlink">
    <!-- Generator: Sketch 41.2 (35397) - http://www.bohemiancoding.com/sketch -->
    <title>Pinterest</title>
    <desc>Created with Sketch.</desc>
    <defs></defs>
    <g id="Symbols" stroke="none" stroke-width="1" fill="none" fill-rule="evenodd">
        <g id="Footer-Mobile" transform="translate(-146.000000, -112.000000)" fill="#FAFAF0">
            <g id="Footer">
                <g id="Pinterest" transform="translate(146.000000, 112.000000)">
                    <path d="M14,0.726517903 C6.65682927,0.726517903 0.682926829,7.08173326 0.682926829,14.8932538 C0.682926829,22.705864 6.65682927,29.0592631 14,29.0592631 C21.3431707,29.0592631 27.3170732,22.705864 27.3170732,14.8932538 C27.3170732,7.08173326 21.3431707,0.726517903 14,0.726517903 Z M14,29.785781 C6.28053659,29.785781 0,23.1054489 0,14.8932538 C0,6.68105864 6.28053659,0 14,0 C21.7198049,0 28,6.68105864 28,14.8932538 C28,23.1054489 21.7198049,29.785781 14,29.785781 L14,29.785781 Z" id="Fill-33"></path>
                    <path d="M14.0003415,8.31608718 C10.6130244,8.31608718 7.86595122,11.2432278 7.86595122,14.8551116 C7.86595122,17.5330566 9.37692683,19.8324857 11.5383902,20.8423456 C11.5206341,20.3882719 11.5353171,19.8397509 11.6449268,19.3420861 C11.7627317,18.8117281 12.4337073,15.7785158 12.4337073,15.7785158 C12.4337073,15.7785158 12.2380488,15.360768 12.2380488,14.7454074 C12.2380488,13.7747794 12.7652683,13.0518941 13.4212195,13.0518941 C13.9788293,13.0518941 14.2489268,13.4983394 14.2489268,14.0330566 C14.2489268,14.6317073 13.8907317,15.5242346 13.7070244,16.352465 C13.5533659,17.0462896 14.033122,17.6129735 14.6747317,17.6129735 C15.8374146,17.6129735 16.6200488,16.0218993 16.6200488,14.1373119 C16.6200488,12.7042553 15.7141463,11.6322782 14.0676098,11.6322782 C12.2069756,11.6322782 11.0477073,13.1103788 11.0477073,14.7621173 C11.0477073,15.3317073 11.2054634,15.7349248 11.4516585,16.0436949 C11.5653659,16.1889984 11.5810732,16.2471199 11.540439,16.4105864 C11.5107317,16.5304619 11.443122,16.821069 11.415122,16.9336793 C11.3741463,17.1007784 11.2488293,17.1588998 11.1081463,17.0971458 C10.2510732,16.7266217 9.8522439,15.724027 9.8522439,14.600467 C9.8522439,12.7427608 11.3212195,10.5145304 14.2359512,10.5145304 C16.5780488,10.5145304 18.1190732,12.3221069 18.1190732,14.2611832 C18.1190732,16.8283342 16.781561,18.7427089 14.8089268,18.7427089 C14.1471707,18.7427089 13.524,18.361287 13.3112683,17.9290088 C13.3112683,17.9290088 12.9547805,19.4329009 12.8793171,19.7271406 C12.7499024,20.228438 12.4948293,20.7333679 12.2619512,21.1256876 C12.8134146,21.3000519 13.3966341,21.3944992 14.0003415,21.3944992 C17.388,21.3944992 20.1340488,18.4666321 20.1340488,14.8551116 C20.1340488,11.2432278 17.388,8.31608718 14.0003415,8.31608718" id="Fill-34"></path>
                </g>
            </g>
        </g>
    </g>
</svg>